<svg viewBox="0 0 999 328" fill="none" xmlns="http://www.w3.org/2000/svg">
<g clip-path="url(#clip0_1_8)">
<g clip-path="url(#clip1_1_8)">
<g clip-path="url(#clip2_1_8)">
<g clip-path="url(#clip3_1_8)">
<g clip-path="url(#clip4_1_8)">
<path d="M96.5909 308.947V270.56C96.5909 266.622 96.9354 260.52 97.6245 252.252L97.9197 248.708L96.4433 248.561C94.1794 256.927 92.2108 263.571 90.5375 268.493L70.9008 326.221H51.2642L30.594 268.493C28.7238 264.063 27.0505 258.551 25.5741 251.956L24.6882 248.561L23.2118 248.708C24.0976 257.468 24.5406 264.752 24.5406 270.56V309.39C28.1824 310.768 30.8893 312.589 32.661 314.853L31.1845 326.221H2.24628L0.769837 314.853C2.54157 312.589 5.24838 310.768 8.89027 309.39V241.178C4.85466 239.702 2.04942 237.881 0.474548 235.716L1.95099 224.347H35.6139L57.1699 283.848C59.926 290.344 61.6977 296.299 62.4851 301.713L62.9281 304.222H64.9951C65.3888 298.218 67.1605 291.427 70.3103 283.848L90.8328 224.347H123.905L125.382 235.716C123.807 237.881 121.001 239.702 116.966 241.178V308.799C120.805 310.276 123.511 311.998 125.086 313.967L123.61 326.221H89.9469L88.4705 314.115C90.0454 312.146 92.7522 310.424 96.5909 308.947ZM204.667 300.531V326.221H136.16L134.683 313.967C135.963 312.294 138.67 310.67 142.804 309.095V241.621C138.768 240.145 136.061 238.472 134.683 236.601L136.16 224.347H203.485V250.037L192.56 251.366C190.296 249.397 188.475 245.755 187.097 240.44H164.064V265.835H184.587C185.768 262.882 186.998 260.815 188.278 259.634L197.58 260.667V286.948L188.278 288.129C186.998 287.145 185.768 285.078 184.587 281.928H164.064V310.128H188.278C189.558 305.01 191.379 301.368 193.741 299.203L204.667 300.531ZM283.361 300.531V326.221H215.74L214.263 313.967C215.543 312.294 218.25 310.67 222.384 309.095V241.621C218.348 240.145 215.641 238.472 214.263 236.601L215.74 224.347H250.289L251.765 236.601C250.19 238.472 247.483 240.145 243.645 241.621V310.128H266.972C268.252 305.01 270.073 301.368 272.435 299.203L283.361 300.531ZM293.903 202.348C296.797 202.348 299.257 203.135 301.285 204.71C303.293 206.285 304.297 208.303 304.297 210.764C304.297 217.26 299.179 227.251 288.942 240.735L281.412 237.93C281.609 222.871 283.528 212.289 287.17 206.187C288.745 203.628 290.989 202.348 293.903 202.348ZM352.576 240.44C349.23 239.554 345.736 239.111 342.094 239.111C338.452 239.111 335.529 240.017 333.324 241.828C331.099 243.659 329.987 246.218 329.987 249.506C329.987 252.813 330.824 255.401 332.497 257.272C334.17 259.142 337.468 260.766 342.389 262.144L355.529 265.983C362.616 268.05 368.256 271.268 372.449 275.639C376.623 280.029 378.71 286.456 378.71 294.921C378.71 304.961 375.097 312.884 367.872 318.692C360.628 324.499 351.641 327.403 340.913 327.403C335.007 327.403 328.934 326.635 322.693 325.099C316.433 323.584 311.236 321.448 307.102 318.692C307.102 318.101 307.102 316.969 307.102 315.296C307.102 313.623 307.447 310.768 308.136 306.732C308.825 302.697 309.809 299.399 311.088 296.84H325.115C326.69 299.892 327.625 303.976 327.92 309.095C331.365 310.571 335.381 311.309 339.968 311.309C344.535 311.309 348.295 310.227 351.248 308.061C354.201 305.896 355.677 302.795 355.677 298.76C355.677 296.89 355.529 295.334 355.234 294.094C354.939 292.874 354.033 291.545 352.517 290.108C350.982 288.69 348.787 287.539 345.932 286.653L330.725 282.224C315.272 277.794 307.545 267.951 307.545 252.695C307.545 243.738 310.793 236.572 317.29 231.198C323.786 225.843 332.28 223.166 342.773 223.166C353.246 223.166 363.502 225.528 373.542 230.253C373.542 230.843 373.542 231.975 373.542 233.649C373.542 235.322 373.197 238.176 372.508 242.212C371.819 246.248 370.835 249.545 369.556 252.104H355.529C353.856 249.742 352.872 245.854 352.576 240.44ZM508.784 313.967L507.308 326.221H482.799L450.022 273.07L474.678 240.293C471.922 239.013 470.003 237.684 468.92 236.306L470.397 224.347H504.059L505.536 236.306C504.158 237.881 501.599 239.456 497.858 241.031L472.316 272.479L495.644 307.618C502.042 308.996 506.422 311.113 508.784 313.967ZM421.231 224.347H455.78L457.256 236.601C455.681 238.472 452.975 240.145 449.136 241.621V309.095C453.073 310.67 455.78 312.294 457.256 313.967L455.78 326.221H421.231L419.755 313.967C421.034 312.294 423.741 310.67 427.875 309.095V241.621C423.839 240.145 421.133 238.472 419.755 236.601L421.231 224.347ZM513.774 224.347H548.323L549.8 236.601C548.225 238.472 545.518 240.145 541.679 241.621V309.095C545.616 310.67 548.323 312.294 549.8 313.967L548.323 326.221H513.774L512.298 313.967C513.578 312.294 516.284 310.67 520.418 309.095V241.621C516.383 240.145 513.676 238.472 512.298 236.601L513.774 224.347ZM555.705 224.495H638.386V245.608L629.085 246.789C627.805 245.805 626.575 243.738 625.393 240.588H607.676V309.095C611.613 310.67 614.32 312.294 615.797 313.967L614.32 326.221H579.771L578.295 313.967C579.575 312.294 582.281 310.67 586.415 309.095V240.588H568.698C567.517 243.738 566.287 245.805 565.007 246.789L555.705 245.608V224.495ZM697.149 241.769C694.196 240.489 689.766 239.85 683.861 239.85C677.955 239.85 673.181 242.409 669.539 247.527C665.897 252.645 664.076 261.603 664.076 274.398C664.076 287.194 665.818 296.269 669.303 301.624C672.807 306.998 678.004 309.685 684.894 309.685C695.426 309.685 704.875 308.11 713.242 304.961L718.557 318.101C708.123 324.302 695.869 327.403 681.794 327.403C667.718 327.403 657.55 323.416 651.29 315.443C645.05 307.471 641.93 294.429 641.93 276.318C641.93 258.207 645.788 244.82 653.505 236.159C661.241 227.497 672.098 223.166 686.075 223.166C697.296 223.166 707.976 226.266 718.114 232.467C718.114 233.058 718.114 234.19 718.114 235.863C718.114 237.537 717.77 240.391 717.081 244.427C716.392 248.462 715.407 251.76 714.128 254.319H700.101C698.723 251.661 697.739 247.478 697.149 241.769ZM788.245 309.095V279.566H755.763V309.095C759.701 310.67 762.407 312.294 763.884 313.967L762.407 326.221H727.859L726.382 313.967C727.662 312.294 730.369 310.67 734.503 309.095V241.621C730.467 240.145 727.76 238.472 726.382 236.601L727.859 224.347H762.407L763.884 236.601C762.309 238.472 759.602 240.145 755.763 241.621V264.801H788.245V241.621C784.209 240.145 781.503 238.472 780.125 236.601L781.601 224.347H816.15L817.626 236.601C816.051 238.472 813.345 240.145 809.506 241.621V309.095C813.443 310.67 816.15 312.294 817.626 313.967L816.15 326.221H781.601L780.125 313.967C781.404 312.294 784.111 310.67 788.245 309.095ZM897.029 300.531V326.221H828.522L827.046 313.967C828.326 312.294 831.032 310.67 835.166 309.095V241.621C831.131 240.145 828.424 238.472 827.046 236.601L828.522 224.347H895.848V250.037L884.922 251.366C882.659 249.397 880.838 245.755 879.46 240.44H856.427V265.835H876.95C878.131 262.882 879.361 260.815 880.641 259.634L889.942 260.667V286.948L880.641 288.129C879.361 287.145 878.131 285.078 876.95 281.928H856.427V310.128H880.641C881.92 305.01 883.741 301.368 886.104 299.203L897.029 300.531ZM930.397 270.56V309.39C934.039 310.768 936.746 312.589 938.517 314.853L937.041 326.221H908.103L906.626 314.853C908.398 312.589 911.105 310.768 914.747 309.39V241.178C910.711 239.702 907.906 237.881 906.331 235.716L907.807 224.347H938.222L967.603 281.633C969.769 285.767 971.885 291.279 973.952 298.169L974.985 301.713L976.61 301.122C975.232 292.559 974.543 285.373 974.543 279.566V241.326C970.999 239.948 968.292 238.078 966.422 235.716L967.899 224.347H996.837L998.313 235.716C996.443 238.078 993.736 239.948 990.193 241.326V326.221H967.013L937.336 268.493C935.171 264.359 933.054 258.797 930.987 251.809L929.954 248.413L928.33 249.004C929.708 257.567 930.397 264.752 930.397 270.56Z" fill="#50A060"/>
</g>
</g>
</g>
</g>
<g clip-path="url(#clip5_1_8)">
<g clip-path="url(#clip6_1_8)">
<path d="M637.028 62.72H623.264C623.264 47.5418 610.92 35.1911 595.738 35.1911C594.523 35.1911 593.304 35.2704 592.102 35.4388C587.167 26.7019 577.759 21.1195 567.344 21.4432C564.285 9.57477 553.494 0.784951 540.684 0.784951C527.633 0.784951 516.67 9.9183 513.855 22.1269C503.863 24.4326 495.932 32.1951 493.379 42.0882C484.153 41.7645 475.872 46.1941 470.65 53.0746C468.493 42.7389 463.211 32.8392 455.871 25.7539C447.269 17.4463 433.271 14.9755 418.442 12.3528C405.54 10.0702 392.185 7.70185 380.964 1.61405C374.787 -1.73209 368.759 0.352229 366.576 5.76618C362.78 15.1605 373.255 42.359 383.941 62.7167H361.76C357.954 62.7167 354.879 65.7952 354.879 69.5972C354.879 69.6104 354.886 69.6237 354.886 69.6369C354.912 126.541 401.203 172.826 458.111 172.826H540.684C597.605 172.826 643.909 126.521 643.909 69.6005C643.909 65.7986 640.83 62.72 637.028 62.72ZM492.513 55.8361C494.006 55.8361 495.533 56.1334 497.184 56.7246C499.377 57.5306 501.835 57.1574 503.695 55.7436C505.551 54.3265 506.572 52.0605 506.39 49.7384C506.377 49.5897 506.298 49.1009 506.275 48.9588C506.275 41.3648 512.452 35.1944 520.039 35.1944C523.841 35.1944 526.92 32.1158 526.92 28.3138C526.92 20.7198 533.097 14.5494 540.684 14.5494C548.271 14.5494 554.448 20.7198 554.442 28.1388C554.419 28.2874 554.346 28.9447 554.333 29.0934C554.151 31.4155 555.175 33.6848 557.028 35.0986C558.895 36.5124 561.362 36.8856 563.539 36.0797C565.194 35.4884 566.72 35.1911 568.21 35.1911C574.36 35.1911 579.797 39.3862 581.422 45.3815C581.934 47.2808 583.239 48.8763 585 49.7483C586.75 50.6303 588.808 50.7029 590.628 49.9696C599.716 46.313 609.5 53.4149 609.5 62.7167H581.528C580.59 58.5546 577.961 55.0565 573.759 52.7113C569.57 50.366 563.902 49.1901 556.629 49.0216C543.967 42.9305 534.675 41.7579 527.521 45.4376C521.083 48.754 517.932 55.0962 515.94 62.7167H480.665C483.05 58.6273 487.44 55.8361 492.513 55.8361ZM540.684 73.0425C538.781 73.0425 537.242 74.5818 537.242 76.4811C537.242 78.3837 538.781 79.923 540.684 79.923C548.661 79.923 554.425 70.8095 556.744 62.7993C562.792 62.9941 565.825 64.0413 567.04 64.7217C568.21 65.3724 568.21 65.7358 568.21 66.0826C568.21 73.3133 547.205 91.8443 523.474 96.1913C525 90.3314 526.001 84.4286 526.86 78.9651C528.343 69.4981 529.889 59.7041 533.827 57.676C535.465 56.8304 539.809 56.2919 550.118 61.1642C548.377 67.0339 544.321 73.0425 540.684 73.0425ZM380.059 16.4752C391.802 21.6182 404.582 23.8743 416.054 25.9025C428.742 28.1487 440.732 30.2693 446.318 35.6601C453.427 42.5209 457.916 52.9986 457.949 62.7167H448.178C438.622 51.978 425.947 39.4753 415.053 34.798C411.565 33.3017 407.522 34.9136 406.016 38.4084C404.516 41.9065 406.131 45.9496 409.626 47.446C415.357 49.9068 422.449 55.9022 429.254 62.7167H399.396C391.336 48.4832 382.573 27.3757 380.059 16.4752ZM540.684 159.061H458.111C411.109 159.061 372.535 122.597 368.997 76.4811H513.317C513.3 76.6033 513.281 76.709 513.261 76.8313C511.946 85.195 510.579 93.8592 507.361 101.265C507.355 101.272 507.361 101.278 507.355 101.291C507.17 101.708 507.157 102.19 507.064 102.649C506.972 103.092 506.796 103.538 506.796 103.977C506.796 103.984 506.79 104 506.79 104C506.79 104.231 506.896 104.429 506.922 104.657C506.985 105.321 507.064 105.979 507.312 106.6C507.487 107.022 507.784 107.356 508.038 107.736C508.273 108.096 508.448 108.489 508.759 108.803C509.238 109.292 509.835 109.645 510.447 109.979C510.622 110.071 510.744 110.233 510.929 110.316C510.935 110.322 510.942 110.316 510.955 110.322C511.728 110.653 512.584 110.818 513.479 110.844C513.538 110.844 513.604 110.887 513.667 110.887H513.674C539.158 110.887 569.425 93.7965 578.915 76.4778H629.794C626.26 122.597 587.685 159.061 540.684 159.061Z" fill="#50A060"/>
</g>
</g>
<path d="M998.358 159.025H664.094V170.302H998.358V159.025Z" fill="#50A060"/>
<path d="M334.694 159.025H0.430237V170.302H334.694V159.025Z" fill="#50A060"/>
<path d="M998.358 136.47H664.094V147.747H998.358V136.47Z" fill="#50A060"/>
<path d="M334.694 136.47H0.430237V147.747H334.694V136.47Z" fill="#50A060"/>
</g>
<defs>
<clipPath id="clip0_1_8">
<rect width="997.927" height="327.403" fill="white" transform="translate(0.430237 -7.62939e-06)"/>
</clipPath>
<clipPath id="clip1_1_8">
<rect width="997.927" height="125.055" fill="white" transform="translate(0.430237 202.348)"/>
</clipPath>
<clipPath id="clip2_1_8">
<rect width="997.927" height="125.055" fill="white" transform="translate(0.430237 202.348)"/>
</clipPath>
<clipPath id="clip3_1_8">
<rect width="997.927" height="125.055" fill="white" transform="translate(0.430237 202.348)"/>
</clipPath>
<clipPath id="clip4_1_8">
<rect width="997.927" height="125.055" fill="white" transform="translate(0.430237 202.348)"/>
</clipPath>
<clipPath id="clip5_1_8">
<rect width="329.399" height="172.826" fill="white" transform="translate(334.694 -7.62939e-06)"/>
</clipPath>
<clipPath id="clip6_1_8">
<rect width="289.03" height="172.826" fill="white" transform="translate(354.879 -7.62939e-06)"/>
</clipPath>
</defs>
</svg>
